<svg version="1.1" viewBox="0.0 0.0 960.0 720.0" fill="none" stroke="none" stroke-linecap="square" stroke-miterlimit="10" xmlns:xlink="http://www.w3.org/1999/xlink" xmlns="http://www.w3.org/2000/svg"><clipPath id="p.0"><path d="m0 0l960.0 0l0 720.0l-960.0 0l0 -720.0z" clip-rule="nonzero"/></clipPath><g clip-path="url(#p.0)"><path fill="#000000" fill-opacity="0.0" d="m0 0l960.0 0l0 720.0l-960.0 0z" fill-rule="evenodd"/><path fill="#000000" fill-opacity="0.0" d="m130.31233 360.07086l0 0c0 -188.36824 156.53111 -341.07086 349.62207 -341.07086l0 0c92.725525 0 181.65326 35.93415 247.2201 99.89735c65.566895 63.96319 102.40198 150.71591 102.40198 241.17352l0 0c0 188.36823 -156.53113 341.07086 -349.62207 341.07086l0 0c-193.09094 0 -349.62207 -152.70264 -349.62207 -341.07086z" fill-rule="evenodd"/><path stroke="#ff00ff" stroke-width="18.078740157480315" stroke-linejoin="round" stroke-linecap="butt" d="m130.31233 360.07086l0 0c0 -188.36824 156.53111 -341.07086 349.62207 -341.07086l0 0c92.725525 0 181.65326 35.93415 247.2201 99.89735c65.566895 63.96319 102.40198 150.71591 102.40198 241.17352l0 0c0 188.36823 -156.53113 341.07086 -349.62207 341.07086l0 0c-193.09094 0 -349.62207 -152.70264 -349.62207 -341.07086z" fill-rule="evenodd"/><path fill="#000000" fill-opacity="0.0" d="m289.008 359.9819l0 0c0 -103.76865 85.5101 -187.88977 190.99213 -187.88977l0 0c50.654297 0 99.23389 19.795471 135.05182 55.03163c35.817993 35.23616 55.940308 83.02666 55.940308 132.85814l0 0c0 103.76865 -85.51007 187.88974 -190.99213 187.88974l0 0c-105.482025 0 -190.99213 -84.12109 -190.99213 -187.88974z" fill-rule="evenodd"/><path stroke="#ff00ff" stroke-width="18.078740157480315" stroke-linejoin="round" stroke-linecap="butt" d="m289.008 359.9819l0 0c0 -103.76865 85.5101 -187.88977 190.99213 -187.88977l0 0c50.654297 0 99.23389 19.795471 135.05182 55.03163c35.817993 35.23616 55.940308 83.02666 55.940308 132.85814l0 0c0 103.76865 -85.51007 187.88974 -190.99213 187.88974l0 0c-105.482025 0 -190.99213 -84.12109 -190.99213 -187.88974z" fill-rule="evenodd"/><path fill="#000000" fill-opacity="0.0" d="m480.019 306.75937c46.666656 -121.18637 228.66666 0 0 155.811c-228.66666 -155.811 -46.666656 -276.99738 0 -155.811z" fill-rule="evenodd"/><path stroke="#ff00ff" stroke-width="18.078740157480315" stroke-linejoin="round" stroke-linecap="butt" d="m480.019 306.75937c46.666656 -121.18637 228.66666 0 0 155.811c-228.66666 -155.811 -46.666656 -276.99738 0 -155.811z" fill-rule="evenodd"/><path fill="#000000" fill-opacity="0.0" d="m480.00012 547.87164l-0.06298828 153.25989" fill-rule="evenodd"/><path stroke="#ff00ff" stroke-width="18.078740157480315" stroke-linejoin="round" stroke-linecap="butt" d="m480.00012 547.87164l-0.06298828 153.25989" fill-rule="evenodd"/><path fill="#000000" fill-opacity="0.0" d="m615.05194 227.12376l112.09448 -108.22047" fill-rule="evenodd"/><path stroke="#ff00ff" stroke-width="18.078740157480315" stroke-linejoin="round" stroke-linecap="butt" d="m615.05194 227.12376l112.09448 -108.22047" fill-rule="evenodd"/><path fill="#000000" fill-opacity="0.0" d="m344.9483 227.12376l-112.220474 -108.22047" fill-rule="evenodd"/><path stroke="#ff00ff" stroke-width="18.078740157480315" stroke-linejoin="round" stroke-linecap="butt" d="m344.9483 227.12376l-112.220474 -108.22047" fill-rule="evenodd"/><path fill="#000000" fill-opacity="0.0" d="m727.1545 118.89735l-124.566895 -7.8110275" fill-rule="evenodd"/><path stroke="#ff00ff" stroke-width="18.078740157480315" stroke-linejoin="round" stroke-linecap="butt" d="m727.1545 118.89735l-124.566895 -7.8110275" fill-rule="evenodd"/><path fill="#000000" fill-opacity="0.0" d="m727.1545 118.89735l0.9763794 119.71653" fill-rule="evenodd"/><path stroke="#ff00ff" stroke-width="18.078740157480315" stroke-linejoin="round" stroke-linecap="butt" d="m727.1545 118.89735l0.9763794 119.71653" fill-rule="evenodd"/><path fill="#000000" fill-opacity="0.0" d="m232.71426 118.89735l117.22833 1.8897629" fill-rule="evenodd"/><path stroke="#ff00ff" stroke-width="18.078740157480315" stroke-linejoin="round" stroke-linecap="butt" d="m232.71426 118.89735l117.22833 1.8897629" fill-rule="evenodd"/><path fill="#000000" fill-opacity="0.0" d="m232.71426 118.89735l-0.5984192 96.50393" fill-rule="evenodd"/><path stroke="#ff00ff" stroke-width="18.078740157480315" stroke-linejoin="round" stroke-linecap="butt" d="m232.71426 118.89735l-0.5984192 96.50393" fill-rule="evenodd"/><path fill="#000000" fill-opacity="0.0" d="m359.4773 144.03096l-100.44095 104.31497" fill-rule="evenodd"/><path stroke="#ff00ff" stroke-width="18.078740157480315" stroke-linejoin="round" stroke-linecap="butt" d="m359.4773 144.03096l-100.44095 104.31497" fill-rule="evenodd"/><path fill="#000000" fill-opacity="0.0" d="m384.5884 632.7326l200.85037 0" fill-rule="evenodd"/><path stroke="#ff00ff" stroke-width="18.078740157480315" stroke-linejoin="round" stroke-linecap="butt" d="m384.5884 632.7326l200.85037 0" fill-rule="evenodd"/></g></svg>